<svg width="61" height="60" viewBox="0 0 61 60" fill="none" xmlns="http://www.w3.org/2000/svg">
<g filter="url(#filter0_i_16_559)">
<path d="M40.1576 24.8249L33.1257 36.901H27.8744L20.8424 24.8249L24.6444 18.3125L24.2512 22.516L28.6736 30.0913H32.3265L36.7488 22.516L36.3557 18.3125L40.1576 24.8249Z" fill="white"/>
<path d="M34.3801 20.0372L31.3056 25.3062H29.6945L26.6199 20.0372L27.6196 18.3125H33.3804L34.3801 20.0372Z" fill="white"/>
<path d="M18.1556 52.1767H13.8582L0 28.4091L2.14814 24.723L18.1556 52.1767ZM61 28.4091L47.1419 52.1767H42.8444L58.8519 24.723L61 28.4091ZM46.5888 3.6809H14.4113L16.5564 0H44.4437L46.5888 3.6809Z" fill="white"/>
<path d="M10.3179 16.6236L12.4969 20.3609L11.4222 22.2028L25.1433 45.7352H27.292L29.5227 49.561V53.8534L25.9401 60L0.967678 17.1709L3.54131 12.7555L10.3179 16.6236ZM60.0323 17.1709L35.0599 60L31.3843 53.6938V49.7206L33.7081 45.7352H35.8568L49.5778 22.2028L48.503 20.361L50.7285 16.544L57.4354 12.7156L60.0323 17.1709ZM56.506 11.1211L50.1948 14.7236H45.2135L44.1394 12.8831H16.8607L15.7866 14.7236H10.7123L4.47072 11.1609L7.22159 6.44157H53.7785L56.506 11.1211Z" fill="white"/>
</g>
<path d="M10.1729 16.7686L12.2676 20.3604L11.251 22.1025L11.1924 22.2031L11.251 22.3027L24.9717 45.835L25.0293 45.9336H27.1787L29.3242 49.6133V53.8008L25.9395 59.6055L1.19629 17.1699L3.61328 13.0244L10.1729 16.7686ZM59.8027 17.1699L35.0596 59.6055L31.582 53.6387V49.7744L33.8213 45.9336H35.9707L36.0283 45.835L49.749 22.3027L49.8076 22.2031L49.749 22.1025L48.7314 20.3604L50.8721 16.6895L57.3633 12.9844L59.8027 17.1699ZM60.7705 28.4082L47.0283 51.9785H43.1895L58.8516 25.1172L60.7705 28.4082ZM17.8105 51.9785H13.9717L0.228516 28.4082L2.14746 25.1172L17.8105 51.9785ZM39.9277 24.8252L33.0117 36.7031H27.9883L21.0713 24.8252L24.3633 19.1855L24.0537 22.498L24.0479 22.5605L24.0801 22.6162L28.5029 30.1914L28.5596 30.2891H32.4404L32.498 30.1914L36.9199 22.6162L36.9521 22.5605L36.6357 19.1855L39.9277 24.8252ZM33.2666 18.5107L34.1504 20.0361L31.1914 25.1084H29.8086L26.8486 20.0361L27.7334 18.5107H33.2666ZM53.665 6.63965L56.2344 11.0479L50.1426 14.5254H45.3271L44.3105 12.7832L44.2529 12.6846H16.7471L16.6895 12.7832L15.6729 14.5254H10.7646L4.74219 11.0879L7.33496 6.63965H53.665ZM44.3301 0.198242L46.2441 3.48242H14.7559L16.6699 0.198242H44.3301Z" stroke="url(#paint0_linear_16_559)" stroke-width="0.396246"/>
<defs>
<filter id="filter0_i_16_559" x="0" y="0" width="64.9625" height="63.9625" filterUnits="userSpaceOnUse" color-interpolation-filters="sRGB">
<feFlood flood-opacity="0" result="BackgroundImageFix"/>
<feBlend mode="normal" in="SourceGraphic" in2="BackgroundImageFix" result="shape"/>
<feColorMatrix in="SourceAlpha" type="matrix" values="0 0 0 0 0 0 0 0 0 0 0 0 0 0 0 0 0 0 127 0" result="hardAlpha"/>
<feOffset dx="3.96246" dy="3.96246"/>
<feGaussianBlur stdDeviation="3.96246"/>
<feComposite in2="hardAlpha" operator="arithmetic" k2="-1" k3="1"/>
<feColorMatrix type="matrix" values="0 0 0 0 1 0 0 0 0 1 0 0 0 0 1 0 0 0 0.25 0"/>
<feBlend mode="normal" in2="shape" result="effect1_innerShadow_16_559"/>
</filter>
<linearGradient id="paint0_linear_16_559" x1="0.156067" y1="3.78096e-07" x2="60.1522" y2="60.6839" gradientUnits="userSpaceOnUse">
<stop stop-color="white"/>
<stop offset="1" stop-color="white"/>
</linearGradient>
</defs>
</svg>
