<svg width="24" height="24" viewBox="0 0 24 24" fill="none" xmlns="http://www.w3.org/2000/svg">
<path fill-rule="evenodd" clip-rule="evenodd" d="M12.0208 1.19006C13.0501 1.19034 13.9469 1.75906 14.4137 2.60217C16.9543 3.57295 18.7696 6.03828 18.7696 8.91038V11.8002C18.7697 12.0151 18.8181 12.3304 18.9102 12.6662C19.0019 13.0002 19.1202 13.2972 19.2278 13.4842L20.3716 15.3838L20.3727 15.385C21.2781 16.8945 20.5533 18.861 18.8844 19.4127L18.8833 19.4115C17.8 19.7732 16.6956 20.0445 15.5809 20.2307C15.0868 21.7251 13.6753 22.81 12.0196 22.81C10.9923 22.8099 10.0432 22.3852 9.36882 21.7108C8.96233 21.3042 8.64851 20.7972 8.46179 20.2342C7.34131 20.048 6.23068 19.7753 5.14187 19.4115L5.13953 19.4104C4.2974 19.1252 3.66536 18.5359 3.38288 17.7733C3.10015 17.0097 3.19633 16.1499 3.6571 15.3838L4.80671 13.4737C4.91591 13.2896 5.03549 12.9962 5.12781 12.6639C5.2206 12.3296 5.26955 12.0148 5.2696 11.8002V8.91038C5.2696 6.02847 7.0825 3.56566 9.62781 2.59866C10.0954 1.75726 10.9925 1.19006 12.0208 1.19006ZM13.7774 20.4557C12.6066 20.5514 11.4303 20.552 10.2594 20.4569C10.3129 20.5244 10.3688 20.5897 10.4294 20.6502C10.8348 21.0557 11.4072 21.3099 12.0196 21.31C12.729 21.31 13.364 20.9742 13.7774 20.4557ZM12.8177 3.74475C11.9655 3.63824 11.1592 3.69877 10.4118 3.91116C8.3007 4.59156 6.7696 6.57535 6.7696 8.91038V11.8002C6.76955 12.1954 6.68849 12.6518 6.5739 13.0647C6.45919 13.4778 6.29365 13.9089 6.09343 14.2448L6.09226 14.2471L4.94148 16.1561L4.94265 16.1573C4.69398 16.5708 4.67948 16.9568 4.78913 17.253C4.899 17.5491 5.16154 17.8338 5.61648 17.9889C9.77203 19.3773 14.2566 19.3772 18.4122 17.9889L18.4145 17.9877C19.1651 17.7392 19.5001 16.8463 19.086 16.1561L17.9364 14.2471L17.9294 14.2354C17.7373 13.9025 17.5772 13.4745 17.4641 13.0623C17.3513 12.651 17.2697 12.1953 17.2696 11.8002V8.91038C17.2696 6.57295 15.7188 4.578 13.5958 3.90413C13.3396 3.83274 13.0816 3.77648 12.82 3.74475H12.8177Z" fill="currentColor" />
</svg>
