<svg width="24" height="24" viewBox="0 0 24 24" fill="none" xmlns="http://www.w3.org/2000/svg">
<path fill-rule="evenodd" clip-rule="evenodd" d="M12.0017 1.25C12.8458 1.25007 13.7319 1.42731 14.4451 1.82422L19.7818 4.79375C20.5317 5.20899 21.1709 5.90718 21.6193 6.66758C22.0677 7.42807 22.3705 8.32402 22.3705 9.18008V14.8297C22.3705 15.6857 22.0677 16.5817 21.6193 17.3422C21.1709 18.1026 20.5328 18.7995 19.783 19.2148L19.7841 19.216L14.4451 22.1855L14.1685 22.3238C13.5126 22.6195 12.7425 22.7527 12.0052 22.7527C11.2681 22.7527 10.4979 22.6194 9.84195 22.3238L9.56539 22.1855L4.22516 19.216C3.47586 18.8006 2.83812 18.1022 2.39 17.3422C1.94161 16.5817 1.64 15.6857 1.64 14.8297V9.18008C1.64 8.32402 1.94158 7.42807 2.39 6.66758C2.83842 5.90713 3.47641 5.20906 4.22633 4.79375L9.56539 1.82422C10.2748 1.42663 11.1587 1.25 12.0017 1.25ZM17.7498 10.0848V13.2395C17.7497 13.6537 17.414 13.9895 16.9998 13.9895C16.5857 13.9893 16.2498 13.6536 16.2498 13.2395V10.9531L12.7505 12.9816V21.1895C13.1209 21.1263 13.4543 21.0184 13.7173 20.873L19.0552 17.9047L19.0564 17.9035C19.5164 17.6488 19.9789 17.1724 20.3279 16.5805C20.677 15.9885 20.8705 15.3536 20.8705 14.8297V9.18008C20.8705 8.92524 20.8229 8.6447 20.7357 8.35508L17.7498 10.0848ZM3.27008 8.36445C3.18481 8.65058 3.14 8.92814 3.14 9.18008V14.8297C3.14 15.3536 3.33351 15.9885 3.68258 16.5805C4.03148 17.1721 4.49314 17.6488 4.95289 17.9035L4.95406 17.9047L10.292 20.873C10.5529 21.0172 10.8835 21.1249 11.2505 21.1883V12.9816L3.27008 8.36445ZM4.95406 6.10508L4.95289 6.10625C4.60333 6.29989 4.25232 6.6217 3.95094 7.025L11.9994 11.6832L15.5642 9.61719L7.26031 4.82188L4.95406 6.10508ZM12.0017 2.75C11.3432 2.75 10.7269 2.89283 10.2966 3.13438L10.2943 3.13555L8.78844 3.97227L17.0619 8.75L20.0537 7.01797C19.7532 6.61798 19.404 6.29873 19.0564 6.10625L19.0552 6.10508L13.715 3.13555C13.2784 2.89263 12.6597 2.75007 12.0017 2.75Z" fill="currentColor" />
</svg>
