<svg width="24" height="24" viewBox="0 0 24 24" fill="none" xmlns="http://www.w3.org/2000/svg">
<path fill-rule="evenodd" clip-rule="evenodd" d="M9.65286 1.25117C9.65833 1.25105 9.66378 1.25001 9.66927 1.25H17.3509C18.7373 1.25011 19.8711 1.51174 20.6966 2.27422C21.4102 2.93348 21.7856 3.86896 21.9939 5L22.0736 5.49688L22.0771 5.52383L22.3572 8.27422C22.4584 9.29201 22.2008 10.2367 21.6904 10.993C21.7133 11.0649 21.729 11.1407 21.729 11.2203V15.7098C21.729 18.029 21.269 19.8494 20.0486 21.0699C18.828 22.2899 17.0085 22.7504 14.6896 22.7504H9.29896C6.98012 22.7502 5.16033 22.2903 3.93997 21.0699C2.71956 19.8494 2.25955 18.0289 2.25951 15.7098V11.2203C2.25951 11.1547 2.27061 11.0912 2.28646 11.0305C1.75897 10.268 1.49092 9.31022 1.59388 8.27539L1.86341 5.52617C1.86437 5.51649 1.86559 5.50652 1.86693 5.49688C2.05455 4.14204 2.42824 3.02773 3.24388 2.27422C4.06947 1.51177 5.20309 1.25006 6.58958 1.25H9.63997C9.64418 1.25 9.64867 1.2511 9.65286 1.25117ZM12.0001 17.75C11.2801 17.7501 10.8802 17.929 10.6548 18.1543C10.4294 18.3797 10.2506 18.7793 10.2505 19.4996V21.2504H13.7509V19.4996C13.7508 18.7798 13.5718 18.3798 13.3466 18.1543C13.1212 17.9289 12.7204 17.7501 12.0001 17.75ZM8.86888 11.1172C8.11068 12.1032 6.91858 12.7496 5.63919 12.7496C4.95242 12.7495 4.31593 12.5911 3.75951 12.3113V15.7098C3.75956 17.8796 4.19901 19.2062 5.00052 20.0082C5.73244 20.7401 6.90183 21.1679 8.75052 21.2375V19.4996C8.75059 18.5503 8.98728 17.7007 9.59427 17.0938C10.2012 16.4869 11.0509 16.2501 12.0001 16.25C12.9494 16.2501 13.8002 16.4868 14.4072 17.0938C15.0138 17.7007 15.2508 18.5505 15.2509 19.4996V21.2375C17.0926 21.1665 18.2576 20.7383 18.988 20.0082C19.7897 19.2063 20.229 17.8799 20.229 15.7098V12.2914C19.6634 12.5835 19.0134 12.7495 18.3107 12.7496C17.0459 12.7496 15.8668 12.1189 15.1056 11.1535C14.4369 12.1215 13.3161 12.7495 12.0001 12.7496C10.6674 12.7495 9.53434 12.1061 8.86888 11.1172ZM6.58958 2.75C5.35675 2.75006 4.68032 2.98855 4.26107 3.37578C3.83316 3.77115 3.52666 4.4543 3.35404 5.69258L3.08568 8.42305C2.92949 9.99287 4.06472 11.2492 5.63919 11.2496C6.9058 11.2496 8.07023 10.2003 8.19271 8.9375L8.19388 8.93516L8.41302 6.725L8.81146 2.75H6.58958ZM9.74661 8.75469C9.61056 10.1446 10.6156 11.2495 12.0001 11.2496C13.2591 11.2495 14.2008 10.3358 14.2595 9.125C14.258 9.11211 14.2562 9.09926 14.2548 9.08633L14.2536 9.08398L14.2548 9.08281L13.622 2.75H10.3478L9.74661 8.75469ZM15.7466 8.60586C15.7615 8.75698 15.7671 8.90751 15.7654 9.05469L15.7829 9.16836C16.0236 10.3278 17.1242 11.2496 18.3107 11.2496C19.8849 11.2493 21.0197 9.99475 20.8642 8.42539L20.5853 5.69023C20.4126 4.45365 20.107 3.77091 19.6794 3.37578C19.2602 2.98857 18.5835 2.75011 17.3509 2.75H15.1677L15.7466 8.60586Z" fill="currentColor" />
</svg>
