<svg width="24" height="24" viewBox="0 0 24 24" fill="none" xmlns="http://www.w3.org/2000/svg">
<path fill-rule="evenodd" clip-rule="evenodd" d="M12.4496 1.25C13.3064 1.25 13.9975 1.54618 14.4488 2.12773C14.8733 2.67494 14.9996 3.36694 14.9996 4.00039V21.2504H16.25V15.0008C16.25 14.3813 16.3594 13.7038 16.7328 13.1621C17.139 12.5732 17.7833 12.2505 18.5996 12.2504H19.4C20.2165 12.2504 20.8617 12.5731 21.268 13.1621C21.6413 13.7038 21.7496 14.3814 21.7496 15.0008V21.2504H22.0004C22.4144 21.2506 22.7504 21.5863 22.7504 22.0004C22.7502 22.4143 22.4143 22.7502 22.0004 22.7504H2C1.58593 22.7504 1.25024 22.4144 1.25 22.0004C1.25 21.5862 1.58579 21.2504 2 21.2504H2.24961V10.0004C2.24961 9.38086 2.3589 8.70344 2.73242 8.16172C3.13852 7.57294 3.78308 7.2502 4.59922 7.25H5.39961C6.21607 7.25 6.86135 7.57281 7.26758 8.16172C7.64105 8.70342 7.74922 9.3809 7.74922 10.0004V21.2504H8.99961V4.00039C8.99961 3.36702 9.12605 2.67491 9.55039 2.12773C10.0016 1.54615 10.6929 1.25009 11.5496 1.25H12.4496ZM4.59922 8.75C4.21634 8.75017 4.06129 8.87779 3.96758 9.01367C3.84126 9.19695 3.74961 9.52014 3.74961 10.0004V21.2504H6.24922V10.0004C6.24922 9.5203 6.15867 9.19698 6.03242 9.01367C5.93863 8.87776 5.78289 8.75 5.39961 8.75H4.59922ZM11.5496 2.75C11.0568 2.75008 10.8475 2.90437 10.7363 3.04766C10.5985 3.22546 10.4996 3.53412 10.4996 4.00039V21.2504H13.4996V4.00039C13.4996 3.53396 13.4008 3.22544 13.2629 3.04766C13.1517 2.90438 12.9425 2.75 12.4496 2.75H11.5496ZM18.5996 13.7504C18.2165 13.7505 18.0617 13.8781 17.968 14.0141C17.8417 14.1974 17.75 14.5206 17.75 15.0008V21.2504H20.2496V15.0008C20.2496 14.521 20.159 14.1974 20.0328 14.0141C19.939 13.8781 19.7835 13.7504 19.4 13.7504H18.5996Z" fill="currentColor" />
</svg>
