<svg width="24" height="24" viewBox="0 0 24 24" fill="none" xmlns="http://www.w3.org/2000/svg">
<path fill-rule="evenodd" clip-rule="evenodd" d="M12.7995 1.25C14.4698 1.25 15.5997 1.61764 16.2165 2.50977C16.5096 2.93393 16.6346 3.40916 16.693 3.85645C16.7505 4.29693 16.7497 4.76972 16.7497 5.2002V5.25H17.0006C19.2233 5.2501 20.7413 5.76487 21.6266 6.81738C22.5047 7.86151 22.5874 9.23403 22.4459 10.5127L22.3942 11.0557C22.3923 11.0802 22.3916 11.1047 22.3874 11.1289L21.6969 18.5L21.6959 18.5098C21.5858 19.5378 21.3275 20.6653 20.4098 21.5039C19.4988 22.3361 18.087 22.7499 16.0006 22.75H8.00064C5.91398 22.75 4.50163 22.3362 3.59048 21.5039C2.67265 20.6653 2.4145 19.5378 2.30435 18.5098L2.30337 18.5L1.55337 10.5L1.55435 10.499C1.41491 9.22416 1.49867 7.85788 2.37368 6.81738C3.25912 5.76488 4.77776 5.25 7.00064 5.25H7.24966V5.2002C7.24966 4.76973 7.24882 4.29692 7.3063 3.85645C7.36469 3.4092 7.48977 2.93391 7.78286 2.50977C8.39958 1.61758 9.52963 1.25005 11.1999 1.25H12.7995ZM20.7545 12.4844C18.8706 13.6022 16.8248 14.3277 14.7331 14.6699C14.7276 14.7435 14.7204 14.8171 14.7106 14.8896C14.6697 15.1921 14.5794 15.5354 14.36 15.8486C13.892 16.5167 13.066 16.75 11.9997 16.75C10.9393 16.75 10.1148 16.5201 9.64517 15.8574C9.4245 15.546 9.3328 15.2038 9.29068 14.9014C9.28085 14.8307 9.2739 14.7591 9.26822 14.6875C7.17923 14.3702 5.13574 13.6547 3.25259 12.5557L3.79654 18.3506L3.8395 18.6865C3.95282 19.443 4.16511 19.9971 4.6022 20.3965C5.10862 20.859 6.06781 21.25 8.00064 21.25H16.0006C17.9331 21.2499 18.8917 20.8589 19.3981 20.3965C19.8974 19.9402 20.1049 19.2821 20.2047 18.3506L20.7545 12.4844ZM10.7506 12.751C10.7499 12.8223 10.7497 12.9036 10.7497 13V14.0303C10.7497 14.3116 10.7526 14.5187 10.777 14.6943C10.8005 14.863 10.8372 14.9456 10.8688 14.9902C10.9041 15.04 11.0805 15.2499 11.9997 15.25C12.9223 15.25 13.0967 15.0379 13.1315 14.9883C13.1633 14.9428 13.2002 14.8592 13.2233 14.6885C13.2353 14.5996 13.2423 14.5032 13.2458 14.3936L13.2497 14.0195V13C13.2497 12.9036 13.2485 12.8223 13.2477 12.751C13.1767 12.7502 13.0954 12.75 12.9997 12.75H10.9997C10.9034 12.75 10.8219 12.7502 10.7506 12.751ZM7.00064 6.75C4.95396 6.75 3.98679 7.23096 3.52212 7.7832C3.10948 8.2739 2.95621 8.98004 3.0104 9.92676L3.04556 10.3477L3.04751 10.3604L3.07583 10.6719C4.97374 11.9642 7.08431 12.8009 9.24966 13.166V13C9.24966 12.7683 9.24885 12.5308 9.27017 12.3389C9.29089 12.1525 9.34626 11.843 9.59439 11.5947C9.84251 11.3466 10.1521 11.2913 10.3385 11.2705C10.5304 11.2492 10.7681 11.25 10.9997 11.25H12.9997C13.2312 11.25 13.4689 11.2492 13.6608 11.2705C13.8472 11.2912 14.1567 11.3466 14.4049 11.5947C14.6532 11.843 14.7084 12.1524 14.7292 12.3389C14.7505 12.5308 14.7497 12.7683 14.7497 13V13.1445C16.9264 12.7516 19.0388 11.9026 20.9323 10.5869L20.9538 10.3604L20.9547 10.3477C21.0832 9.18684 20.9505 8.34403 20.4792 7.7832C20.0146 7.23092 19.0472 6.7501 17.0006 6.75H7.00064ZM11.1999 2.75C9.67075 2.75005 9.19955 3.09717 9.01626 3.3623C8.90949 3.51686 8.83519 3.73225 8.79361 4.05078C8.75118 4.37607 8.74966 4.74593 8.74966 5.2002V5.25H15.2497V5.2002C15.2497 4.74591 15.2482 4.37608 15.2057 4.05078C15.1641 3.73217 15.0899 3.51687 14.9831 3.3623C14.7997 3.09717 14.3285 2.75 12.7995 2.75H11.1999Z" fill="white" fill-opacity="0.8"/>
</svg>
