<svg width="24" height="24" viewBox="0 0 24 24" fill="none" xmlns="http://www.w3.org/2000/svg">
<path d="M15 1.25C17.574 1.25 19.5708 1.76026 20.9053 3.09473C22.2397 4.4292 22.75 6.42603 22.75 9V15C22.75 17.574 22.2397 19.5708 20.9053 20.9053C19.5708 22.2397 17.574 22.75 15 22.75H9C6.42603 22.75 4.4292 22.2397 3.09473 20.9053C1.76026 19.5708 1.25 17.574 1.25 15V9C1.25 6.42603 1.76026 4.4292 3.09473 3.09473C4.4292 1.76026 6.42603 1.25 9 1.25H15ZM9 2.75C6.57397 2.75 5.0708 3.23974 4.15527 4.15527C3.23974 5.0708 2.75 6.57397 2.75 9V15C2.75 17.426 3.23974 18.9292 4.15527 19.8447C5.0708 20.7603 6.57397 21.25 9 21.25H15C17.426 21.25 18.9292 20.7603 19.8447 19.8447C20.7603 18.9292 21.25 17.426 21.25 15V9C21.25 6.57397 20.7603 5.0708 19.8447 4.15527C18.9292 3.23974 17.426 2.75 15 2.75H9ZM16 4.25C17.1156 4.25 18.09 4.52947 18.7803 5.21973C19.4705 5.90999 19.75 6.88439 19.75 8V16C19.75 17.1156 19.4705 18.09 18.7803 18.7803C18.09 19.4705 17.1156 19.75 16 19.75H8C6.88439 19.75 5.90999 19.4705 5.21973 18.7803C4.52947 18.09 4.25 17.1156 4.25 16V8C4.25 6.88439 4.52947 5.90999 5.21973 5.21973C5.90999 4.52947 6.88439 4.25 8 4.25H16ZM8 5.75C7.11561 5.75 6.59001 5.97053 6.28027 6.28027C5.97053 6.59001 5.75 7.11561 5.75 8V8.75H7.48047C9.27447 8.75026 10.7305 10.2059 10.7305 12C10.7305 13.7941 9.27447 15.2497 7.48047 15.25H5.75V16C5.75 16.8844 5.97053 17.41 6.28027 17.7197C6.59001 18.0295 7.11561 18.25 8 18.25H16C16.8844 18.25 17.41 18.0295 17.7197 17.7197C18.0295 17.41 18.25 16.8844 18.25 16V14.75H16C15.5858 14.75 15.25 14.4142 15.25 14C15.25 13.5858 15.5858 13.25 16 13.25H18.25V10.7402H16C15.5859 10.7402 15.2501 10.4043 15.25 9.99023C15.25 9.57602 15.5858 9.24023 16 9.24023H18.25V8C18.25 7.11561 18.0295 6.59001 17.7197 6.28027C17.41 5.97053 16.8844 5.75 16 5.75H8ZM5.75 13.75H7.48047C8.44604 13.7497 9.23047 12.9656 9.23047 12C9.23047 11.0344 8.44604 10.2503 7.48047 10.25H5.75V13.75ZM7.2998 11C7.85209 11 8.2998 11.4477 8.2998 12C8.2998 12.5523 7.85209 13 7.2998 13H7.2002C6.64791 13 6.2002 12.5523 6.2002 12C6.2002 11.4477 6.64791 11 7.2002 11H7.2998Z" fill="white" fill-opacity="0.8"/>
</svg>
