<svg width="24" height="24" viewBox="0 0 24 24" fill="none" xmlns="http://www.w3.org/2000/svg">
<path d="M14 13.25C14.4142 13.25 14.75 13.5858 14.75 14C14.75 14.4142 14.4142 14.75 14 14.75H10C9.58579 14.75 9.25 14.4142 9.25 14C9.25 13.5858 9.58579 13.25 10 13.25H14Z" fill="white" fill-opacity="0.8"/>
<path d="M14 10.25C14.4142 10.25 14.75 10.5858 14.75 11C14.75 11.4142 14.4142 11.75 14 11.75H10C9.58579 11.75 9.25 11.4142 9.25 11C9.25 10.5858 9.58579 10.25 10 10.25H14Z" fill="white" fill-opacity="0.8"/>
<path fill-rule="evenodd" clip-rule="evenodd" d="M8.4502 1.25C9.28206 1.25003 10.0435 1.46047 10.5918 2.00879C11.1399 2.55712 11.3496 3.31861 11.3496 4.15039V5.25H12.6504V4.15039C12.6504 3.31847 12.8608 2.55714 13.4092 2.00879C13.9575 1.46058 14.7189 1.25 15.5508 1.25H19.8506C20.6823 1.2501 21.444 1.46057 21.9922 2.00879C22.5402 2.5571 22.75 3.3187 22.75 4.15039V15.8496C22.75 16.6813 22.5402 17.4429 21.9922 17.9912C21.444 18.5394 20.6823 18.7499 19.8506 18.75H18.1201V19.5801C18.1201 20.4994 17.8912 21.3287 17.3008 21.9229C16.7095 22.5176 15.8815 22.75 14.96 22.75H9.12012C8.19841 22.75 7.36977 22.5172 6.77637 21.9238C6.18296 21.3304 5.95021 20.5018 5.9502 19.5801V18.75H4.15039C3.31845 18.75 2.55714 18.5396 2.00879 17.9912C1.46044 17.4429 1.25 16.6815 1.25 15.8496V4.15039C1.25 3.31845 1.46044 2.55714 2.00879 2.00879C2.55714 1.46044 3.31845 1.25 4.15039 1.25H8.4502ZM9.12012 6.75C8.43203 6.75001 8.051 6.92269 7.83691 7.13672C7.62285 7.35079 7.45021 7.73174 7.4502 8.41992V19.5801C7.45021 20.2683 7.62285 20.6492 7.83691 20.8633C8.051 21.0773 8.43203 21.25 9.12012 21.25H11.25V19C11.25 18.5858 11.5858 18.25 12 18.25C12.4142 18.25 12.75 18.5858 12.75 19V21.25H14.96C15.6481 21.25 16.0262 21.0777 16.2373 20.8652C16.4492 20.6519 16.6201 20.2704 16.6201 19.5801V8.41992C16.6201 7.72959 16.4492 7.34812 16.2373 7.13477C16.0262 6.92232 15.6481 6.75003 14.96 6.75H9.12012ZM4.15039 2.75C3.55233 2.75 3.2385 2.90017 3.06934 3.06934C2.90017 3.2385 2.75 3.55233 2.75 4.15039V15.8496C2.75 16.4477 2.90017 16.7615 3.06934 16.9307C3.2385 17.0998 3.55233 17.25 4.15039 17.25H5.9502V8.41992C5.95021 7.49817 6.18296 6.66958 6.77637 6.07617C7.36977 5.48283 8.19841 5.25001 9.12012 5.25H9.84961V4.15039C9.84961 3.55267 9.70028 3.23856 9.53125 3.06934C9.36212 2.9002 9.04814 2.75003 8.4502 2.75H4.15039ZM15.5508 2.75C14.9529 2.75 14.6389 2.90026 14.4697 3.06934C14.3006 3.23849 14.1504 3.55231 14.1504 4.15039V5.25H14.96C15.8815 5.25003 16.7095 5.48237 17.3008 6.07715C17.8912 6.6713 18.1201 7.50056 18.1201 8.41992V17.25H19.8506C20.4483 17.2499 20.7625 17.0998 20.9316 16.9307C21.1006 16.7614 21.25 16.4471 21.25 15.8496V4.15039C21.25 3.5529 21.1006 3.23861 20.9316 3.06934C20.7625 2.90023 20.4483 2.7501 19.8506 2.75H15.5508Z" fill="white" fill-opacity="0.8"/>
</svg>
